%TF.GenerationSoftware,KiCad,Pcbnew,10.0.3*%
%TF.CreationDate,2026-06-13T19:55:04-04:00*%
%TF.ProjectId,breakout_board,62726561-6b6f-4757-945f-626f6172642e,rev?*%
%TF.SameCoordinates,Original*%
%TF.FileFunction,Drillmap*%
%TF.FilePolarity,Positive*%
%FSLAX45Y45*%
G04 Gerber Fmt 4.5, Leading zero omitted, Abs format (unit mm)*
G04 Created by KiCad (PCBNEW 10.0.3) date 2026-06-13 19:55:04*
%MOMM*%
%LPD*%
G01*
G04 APERTURE LIST*
%ADD10C,0.050000*%
%ADD11C,0.200000*%
%ADD12C,0.220000*%
G04 APERTURE END LIST*
D10*
X13004000Y-2000000D02*
X13004000Y-8500000D01*
X13004000Y-2000000D02*
X16004000Y-2000000D01*
X16004000Y-2000000D02*
X16004000Y-8500000D01*
X16004000Y-8500000D02*
X13004000Y-8500000D01*
D11*
D12*
X13244000Y-2240000D02*
X13464000Y-2460000D01*
X13464000Y-2240000D02*
X13244000Y-2460000D01*
X13244000Y-8040000D02*
X13464000Y-8260000D01*
X13464000Y-8040000D02*
X13244000Y-8260000D01*
X15544000Y-2240000D02*
X15764000Y-2460000D01*
X15764000Y-2240000D02*
X15544000Y-2460000D01*
X15544000Y-8040000D02*
X15764000Y-8260000D01*
X15764000Y-8040000D02*
X15544000Y-8260000D01*
D11*
X13262277Y-8813984D02*
X13262277Y-8613984D01*
X13262277Y-8613984D02*
X13309896Y-8613984D01*
X13309896Y-8613984D02*
X13338467Y-8623508D01*
X13338467Y-8623508D02*
X13357515Y-8642555D01*
X13357515Y-8642555D02*
X13367039Y-8661603D01*
X13367039Y-8661603D02*
X13376562Y-8699698D01*
X13376562Y-8699698D02*
X13376562Y-8728270D01*
X13376562Y-8728270D02*
X13367039Y-8766365D01*
X13367039Y-8766365D02*
X13357515Y-8785412D01*
X13357515Y-8785412D02*
X13338467Y-8804460D01*
X13338467Y-8804460D02*
X13309896Y-8813984D01*
X13309896Y-8813984D02*
X13262277Y-8813984D01*
X13462277Y-8813984D02*
X13462277Y-8680650D01*
X13462277Y-8718746D02*
X13471801Y-8699698D01*
X13471801Y-8699698D02*
X13481324Y-8690174D01*
X13481324Y-8690174D02*
X13500372Y-8680650D01*
X13500372Y-8680650D02*
X13519420Y-8680650D01*
X13586086Y-8813984D02*
X13586086Y-8680650D01*
X13586086Y-8613984D02*
X13576562Y-8623508D01*
X13576562Y-8623508D02*
X13586086Y-8633031D01*
X13586086Y-8633031D02*
X13595610Y-8623508D01*
X13595610Y-8623508D02*
X13586086Y-8613984D01*
X13586086Y-8613984D02*
X13586086Y-8633031D01*
X13709896Y-8813984D02*
X13690848Y-8804460D01*
X13690848Y-8804460D02*
X13681324Y-8785412D01*
X13681324Y-8785412D02*
X13681324Y-8613984D01*
X13814658Y-8813984D02*
X13795610Y-8804460D01*
X13795610Y-8804460D02*
X13786086Y-8785412D01*
X13786086Y-8785412D02*
X13786086Y-8613984D01*
X14043229Y-8813984D02*
X14043229Y-8613984D01*
X14043229Y-8613984D02*
X14109896Y-8756841D01*
X14109896Y-8756841D02*
X14176562Y-8613984D01*
X14176562Y-8613984D02*
X14176562Y-8813984D01*
X14357515Y-8813984D02*
X14357515Y-8709222D01*
X14357515Y-8709222D02*
X14347991Y-8690174D01*
X14347991Y-8690174D02*
X14328943Y-8680650D01*
X14328943Y-8680650D02*
X14290848Y-8680650D01*
X14290848Y-8680650D02*
X14271801Y-8690174D01*
X14357515Y-8804460D02*
X14338467Y-8813984D01*
X14338467Y-8813984D02*
X14290848Y-8813984D01*
X14290848Y-8813984D02*
X14271801Y-8804460D01*
X14271801Y-8804460D02*
X14262277Y-8785412D01*
X14262277Y-8785412D02*
X14262277Y-8766365D01*
X14262277Y-8766365D02*
X14271801Y-8747317D01*
X14271801Y-8747317D02*
X14290848Y-8737793D01*
X14290848Y-8737793D02*
X14338467Y-8737793D01*
X14338467Y-8737793D02*
X14357515Y-8728270D01*
X14452753Y-8680650D02*
X14452753Y-8880650D01*
X14452753Y-8690174D02*
X14471801Y-8680650D01*
X14471801Y-8680650D02*
X14509896Y-8680650D01*
X14509896Y-8680650D02*
X14528943Y-8690174D01*
X14528943Y-8690174D02*
X14538467Y-8699698D01*
X14538467Y-8699698D02*
X14547991Y-8718746D01*
X14547991Y-8718746D02*
X14547991Y-8775889D01*
X14547991Y-8775889D02*
X14538467Y-8794936D01*
X14538467Y-8794936D02*
X14528943Y-8804460D01*
X14528943Y-8804460D02*
X14509896Y-8813984D01*
X14509896Y-8813984D02*
X14471801Y-8813984D01*
X14471801Y-8813984D02*
X14452753Y-8804460D01*
X14633705Y-8794936D02*
X14643229Y-8804460D01*
X14643229Y-8804460D02*
X14633705Y-8813984D01*
X14633705Y-8813984D02*
X14624182Y-8804460D01*
X14624182Y-8804460D02*
X14633705Y-8794936D01*
X14633705Y-8794936D02*
X14633705Y-8813984D01*
X14633705Y-8690174D02*
X14643229Y-8699698D01*
X14643229Y-8699698D02*
X14633705Y-8709222D01*
X14633705Y-8709222D02*
X14624182Y-8699698D01*
X14624182Y-8699698D02*
X14633705Y-8690174D01*
X14633705Y-8690174D02*
X14633705Y-8709222D01*
X12801500Y-9042500D02*
X13001500Y-9242500D01*
X13001500Y-9042500D02*
X12801500Y-9242500D01*
X13252753Y-9053031D02*
X13262277Y-9043508D01*
X13262277Y-9043508D02*
X13281324Y-9033984D01*
X13281324Y-9033984D02*
X13328943Y-9033984D01*
X13328943Y-9033984D02*
X13347991Y-9043508D01*
X13347991Y-9043508D02*
X13357515Y-9053031D01*
X13357515Y-9053031D02*
X13367039Y-9072079D01*
X13367039Y-9072079D02*
X13367039Y-9091127D01*
X13367039Y-9091127D02*
X13357515Y-9119698D01*
X13357515Y-9119698D02*
X13243229Y-9233984D01*
X13243229Y-9233984D02*
X13367039Y-9233984D01*
X13452753Y-9214936D02*
X13462277Y-9224460D01*
X13462277Y-9224460D02*
X13452753Y-9233984D01*
X13452753Y-9233984D02*
X13443229Y-9224460D01*
X13443229Y-9224460D02*
X13452753Y-9214936D01*
X13452753Y-9214936D02*
X13452753Y-9233984D01*
X13538467Y-9053031D02*
X13547991Y-9043508D01*
X13547991Y-9043508D02*
X13567039Y-9033984D01*
X13567039Y-9033984D02*
X13614658Y-9033984D01*
X13614658Y-9033984D02*
X13633705Y-9043508D01*
X13633705Y-9043508D02*
X13643229Y-9053031D01*
X13643229Y-9053031D02*
X13652753Y-9072079D01*
X13652753Y-9072079D02*
X13652753Y-9091127D01*
X13652753Y-9091127D02*
X13643229Y-9119698D01*
X13643229Y-9119698D02*
X13528943Y-9233984D01*
X13528943Y-9233984D02*
X13652753Y-9233984D01*
X13776562Y-9033984D02*
X13795610Y-9033984D01*
X13795610Y-9033984D02*
X13814658Y-9043508D01*
X13814658Y-9043508D02*
X13824182Y-9053031D01*
X13824182Y-9053031D02*
X13833705Y-9072079D01*
X13833705Y-9072079D02*
X13843229Y-9110174D01*
X13843229Y-9110174D02*
X13843229Y-9157793D01*
X13843229Y-9157793D02*
X13833705Y-9195889D01*
X13833705Y-9195889D02*
X13824182Y-9214936D01*
X13824182Y-9214936D02*
X13814658Y-9224460D01*
X13814658Y-9224460D02*
X13795610Y-9233984D01*
X13795610Y-9233984D02*
X13776562Y-9233984D01*
X13776562Y-9233984D02*
X13757515Y-9224460D01*
X13757515Y-9224460D02*
X13747991Y-9214936D01*
X13747991Y-9214936D02*
X13738467Y-9195889D01*
X13738467Y-9195889D02*
X13728943Y-9157793D01*
X13728943Y-9157793D02*
X13728943Y-9110174D01*
X13728943Y-9110174D02*
X13738467Y-9072079D01*
X13738467Y-9072079D02*
X13747991Y-9053031D01*
X13747991Y-9053031D02*
X13757515Y-9043508D01*
X13757515Y-9043508D02*
X13776562Y-9033984D01*
X13967039Y-9033984D02*
X13986086Y-9033984D01*
X13986086Y-9033984D02*
X14005134Y-9043508D01*
X14005134Y-9043508D02*
X14014658Y-9053031D01*
X14014658Y-9053031D02*
X14024182Y-9072079D01*
X14024182Y-9072079D02*
X14033705Y-9110174D01*
X14033705Y-9110174D02*
X14033705Y-9157793D01*
X14033705Y-9157793D02*
X14024182Y-9195889D01*
X14024182Y-9195889D02*
X14014658Y-9214936D01*
X14014658Y-9214936D02*
X14005134Y-9224460D01*
X14005134Y-9224460D02*
X13986086Y-9233984D01*
X13986086Y-9233984D02*
X13967039Y-9233984D01*
X13967039Y-9233984D02*
X13947991Y-9224460D01*
X13947991Y-9224460D02*
X13938467Y-9214936D01*
X13938467Y-9214936D02*
X13928943Y-9195889D01*
X13928943Y-9195889D02*
X13919420Y-9157793D01*
X13919420Y-9157793D02*
X13919420Y-9110174D01*
X13919420Y-9110174D02*
X13928943Y-9072079D01*
X13928943Y-9072079D02*
X13938467Y-9053031D01*
X13938467Y-9053031D02*
X13947991Y-9043508D01*
X13947991Y-9043508D02*
X13967039Y-9033984D01*
X14119420Y-9233984D02*
X14119420Y-9100650D01*
X14119420Y-9119698D02*
X14128943Y-9110174D01*
X14128943Y-9110174D02*
X14147991Y-9100650D01*
X14147991Y-9100650D02*
X14176563Y-9100650D01*
X14176563Y-9100650D02*
X14195610Y-9110174D01*
X14195610Y-9110174D02*
X14205134Y-9129222D01*
X14205134Y-9129222D02*
X14205134Y-9233984D01*
X14205134Y-9129222D02*
X14214658Y-9110174D01*
X14214658Y-9110174D02*
X14233705Y-9100650D01*
X14233705Y-9100650D02*
X14262277Y-9100650D01*
X14262277Y-9100650D02*
X14281324Y-9110174D01*
X14281324Y-9110174D02*
X14290848Y-9129222D01*
X14290848Y-9129222D02*
X14290848Y-9233984D01*
X14386086Y-9233984D02*
X14386086Y-9100650D01*
X14386086Y-9119698D02*
X14395610Y-9110174D01*
X14395610Y-9110174D02*
X14414658Y-9100650D01*
X14414658Y-9100650D02*
X14443229Y-9100650D01*
X14443229Y-9100650D02*
X14462277Y-9110174D01*
X14462277Y-9110174D02*
X14471801Y-9129222D01*
X14471801Y-9129222D02*
X14471801Y-9233984D01*
X14471801Y-9129222D02*
X14481324Y-9110174D01*
X14481324Y-9110174D02*
X14500372Y-9100650D01*
X14500372Y-9100650D02*
X14528943Y-9100650D01*
X14528943Y-9100650D02*
X14547991Y-9110174D01*
X14547991Y-9110174D02*
X14557515Y-9129222D01*
X14557515Y-9129222D02*
X14557515Y-9233984D01*
X14947991Y-9024460D02*
X14776563Y-9281603D01*
X15205134Y-9033984D02*
X15224182Y-9033984D01*
X15224182Y-9033984D02*
X15243229Y-9043508D01*
X15243229Y-9043508D02*
X15252753Y-9053031D01*
X15252753Y-9053031D02*
X15262277Y-9072079D01*
X15262277Y-9072079D02*
X15271801Y-9110174D01*
X15271801Y-9110174D02*
X15271801Y-9157793D01*
X15271801Y-9157793D02*
X15262277Y-9195889D01*
X15262277Y-9195889D02*
X15252753Y-9214936D01*
X15252753Y-9214936D02*
X15243229Y-9224460D01*
X15243229Y-9224460D02*
X15224182Y-9233984D01*
X15224182Y-9233984D02*
X15205134Y-9233984D01*
X15205134Y-9233984D02*
X15186086Y-9224460D01*
X15186086Y-9224460D02*
X15176563Y-9214936D01*
X15176563Y-9214936D02*
X15167039Y-9195889D01*
X15167039Y-9195889D02*
X15157515Y-9157793D01*
X15157515Y-9157793D02*
X15157515Y-9110174D01*
X15157515Y-9110174D02*
X15167039Y-9072079D01*
X15167039Y-9072079D02*
X15176563Y-9053031D01*
X15176563Y-9053031D02*
X15186086Y-9043508D01*
X15186086Y-9043508D02*
X15205134Y-9033984D01*
X15357515Y-9214936D02*
X15367039Y-9224460D01*
X15367039Y-9224460D02*
X15357515Y-9233984D01*
X15357515Y-9233984D02*
X15347991Y-9224460D01*
X15347991Y-9224460D02*
X15357515Y-9214936D01*
X15357515Y-9214936D02*
X15357515Y-9233984D01*
X15490848Y-9033984D02*
X15509896Y-9033984D01*
X15509896Y-9033984D02*
X15528944Y-9043508D01*
X15528944Y-9043508D02*
X15538467Y-9053031D01*
X15538467Y-9053031D02*
X15547991Y-9072079D01*
X15547991Y-9072079D02*
X15557515Y-9110174D01*
X15557515Y-9110174D02*
X15557515Y-9157793D01*
X15557515Y-9157793D02*
X15547991Y-9195889D01*
X15547991Y-9195889D02*
X15538467Y-9214936D01*
X15538467Y-9214936D02*
X15528944Y-9224460D01*
X15528944Y-9224460D02*
X15509896Y-9233984D01*
X15509896Y-9233984D02*
X15490848Y-9233984D01*
X15490848Y-9233984D02*
X15471801Y-9224460D01*
X15471801Y-9224460D02*
X15462277Y-9214936D01*
X15462277Y-9214936D02*
X15452753Y-9195889D01*
X15452753Y-9195889D02*
X15443229Y-9157793D01*
X15443229Y-9157793D02*
X15443229Y-9110174D01*
X15443229Y-9110174D02*
X15452753Y-9072079D01*
X15452753Y-9072079D02*
X15462277Y-9053031D01*
X15462277Y-9053031D02*
X15471801Y-9043508D01*
X15471801Y-9043508D02*
X15490848Y-9033984D01*
X15671801Y-9119698D02*
X15652753Y-9110174D01*
X15652753Y-9110174D02*
X15643229Y-9100650D01*
X15643229Y-9100650D02*
X15633706Y-9081603D01*
X15633706Y-9081603D02*
X15633706Y-9072079D01*
X15633706Y-9072079D02*
X15643229Y-9053031D01*
X15643229Y-9053031D02*
X15652753Y-9043508D01*
X15652753Y-9043508D02*
X15671801Y-9033984D01*
X15671801Y-9033984D02*
X15709896Y-9033984D01*
X15709896Y-9033984D02*
X15728944Y-9043508D01*
X15728944Y-9043508D02*
X15738467Y-9053031D01*
X15738467Y-9053031D02*
X15747991Y-9072079D01*
X15747991Y-9072079D02*
X15747991Y-9081603D01*
X15747991Y-9081603D02*
X15738467Y-9100650D01*
X15738467Y-9100650D02*
X15728944Y-9110174D01*
X15728944Y-9110174D02*
X15709896Y-9119698D01*
X15709896Y-9119698D02*
X15671801Y-9119698D01*
X15671801Y-9119698D02*
X15652753Y-9129222D01*
X15652753Y-9129222D02*
X15643229Y-9138746D01*
X15643229Y-9138746D02*
X15633706Y-9157793D01*
X15633706Y-9157793D02*
X15633706Y-9195889D01*
X15633706Y-9195889D02*
X15643229Y-9214936D01*
X15643229Y-9214936D02*
X15652753Y-9224460D01*
X15652753Y-9224460D02*
X15671801Y-9233984D01*
X15671801Y-9233984D02*
X15709896Y-9233984D01*
X15709896Y-9233984D02*
X15728944Y-9224460D01*
X15728944Y-9224460D02*
X15738467Y-9214936D01*
X15738467Y-9214936D02*
X15747991Y-9195889D01*
X15747991Y-9195889D02*
X15747991Y-9157793D01*
X15747991Y-9157793D02*
X15738467Y-9138746D01*
X15738467Y-9138746D02*
X15728944Y-9129222D01*
X15728944Y-9129222D02*
X15709896Y-9119698D01*
X15919420Y-9033984D02*
X15881325Y-9033984D01*
X15881325Y-9033984D02*
X15862277Y-9043508D01*
X15862277Y-9043508D02*
X15852753Y-9053031D01*
X15852753Y-9053031D02*
X15833706Y-9081603D01*
X15833706Y-9081603D02*
X15824182Y-9119698D01*
X15824182Y-9119698D02*
X15824182Y-9195889D01*
X15824182Y-9195889D02*
X15833706Y-9214936D01*
X15833706Y-9214936D02*
X15843229Y-9224460D01*
X15843229Y-9224460D02*
X15862277Y-9233984D01*
X15862277Y-9233984D02*
X15900372Y-9233984D01*
X15900372Y-9233984D02*
X15919420Y-9224460D01*
X15919420Y-9224460D02*
X15928944Y-9214936D01*
X15928944Y-9214936D02*
X15938467Y-9195889D01*
X15938467Y-9195889D02*
X15938467Y-9148270D01*
X15938467Y-9148270D02*
X15928944Y-9129222D01*
X15928944Y-9129222D02*
X15919420Y-9119698D01*
X15919420Y-9119698D02*
X15900372Y-9110174D01*
X15900372Y-9110174D02*
X15862277Y-9110174D01*
X15862277Y-9110174D02*
X15843229Y-9119698D01*
X15843229Y-9119698D02*
X15833706Y-9129222D01*
X15833706Y-9129222D02*
X15824182Y-9148270D01*
X16109896Y-9033984D02*
X16071801Y-9033984D01*
X16071801Y-9033984D02*
X16052753Y-9043508D01*
X16052753Y-9043508D02*
X16043229Y-9053031D01*
X16043229Y-9053031D02*
X16024182Y-9081603D01*
X16024182Y-9081603D02*
X16014658Y-9119698D01*
X16014658Y-9119698D02*
X16014658Y-9195889D01*
X16014658Y-9195889D02*
X16024182Y-9214936D01*
X16024182Y-9214936D02*
X16033706Y-9224460D01*
X16033706Y-9224460D02*
X16052753Y-9233984D01*
X16052753Y-9233984D02*
X16090848Y-9233984D01*
X16090848Y-9233984D02*
X16109896Y-9224460D01*
X16109896Y-9224460D02*
X16119420Y-9214936D01*
X16119420Y-9214936D02*
X16128944Y-9195889D01*
X16128944Y-9195889D02*
X16128944Y-9148270D01*
X16128944Y-9148270D02*
X16119420Y-9129222D01*
X16119420Y-9129222D02*
X16109896Y-9119698D01*
X16109896Y-9119698D02*
X16090848Y-9110174D01*
X16090848Y-9110174D02*
X16052753Y-9110174D01*
X16052753Y-9110174D02*
X16033706Y-9119698D01*
X16033706Y-9119698D02*
X16024182Y-9129222D01*
X16024182Y-9129222D02*
X16014658Y-9148270D01*
X16205134Y-9033984D02*
X16205134Y-9072079D01*
X16281325Y-9033984D02*
X16281325Y-9072079D01*
X16576563Y-9310174D02*
X16567039Y-9300650D01*
X16567039Y-9300650D02*
X16547991Y-9272079D01*
X16547991Y-9272079D02*
X16538468Y-9253031D01*
X16538468Y-9253031D02*
X16528944Y-9224460D01*
X16528944Y-9224460D02*
X16519420Y-9176841D01*
X16519420Y-9176841D02*
X16519420Y-9138746D01*
X16519420Y-9138746D02*
X16528944Y-9091127D01*
X16528944Y-9091127D02*
X16538468Y-9062555D01*
X16538468Y-9062555D02*
X16547991Y-9043508D01*
X16547991Y-9043508D02*
X16567039Y-9014936D01*
X16567039Y-9014936D02*
X16576563Y-9005412D01*
X16738468Y-9100650D02*
X16738468Y-9233984D01*
X16690848Y-9024460D02*
X16643229Y-9167317D01*
X16643229Y-9167317D02*
X16767039Y-9167317D01*
X16995611Y-9233984D02*
X16995611Y-9033984D01*
X17081325Y-9233984D02*
X17081325Y-9129222D01*
X17081325Y-9129222D02*
X17071801Y-9110174D01*
X17071801Y-9110174D02*
X17052753Y-9100650D01*
X17052753Y-9100650D02*
X17024182Y-9100650D01*
X17024182Y-9100650D02*
X17005134Y-9110174D01*
X17005134Y-9110174D02*
X16995611Y-9119698D01*
X17205134Y-9233984D02*
X17186087Y-9224460D01*
X17186087Y-9224460D02*
X17176563Y-9214936D01*
X17176563Y-9214936D02*
X17167039Y-9195889D01*
X17167039Y-9195889D02*
X17167039Y-9138746D01*
X17167039Y-9138746D02*
X17176563Y-9119698D01*
X17176563Y-9119698D02*
X17186087Y-9110174D01*
X17186087Y-9110174D02*
X17205134Y-9100650D01*
X17205134Y-9100650D02*
X17233706Y-9100650D01*
X17233706Y-9100650D02*
X17252753Y-9110174D01*
X17252753Y-9110174D02*
X17262277Y-9119698D01*
X17262277Y-9119698D02*
X17271801Y-9138746D01*
X17271801Y-9138746D02*
X17271801Y-9195889D01*
X17271801Y-9195889D02*
X17262277Y-9214936D01*
X17262277Y-9214936D02*
X17252753Y-9224460D01*
X17252753Y-9224460D02*
X17233706Y-9233984D01*
X17233706Y-9233984D02*
X17205134Y-9233984D01*
X17386087Y-9233984D02*
X17367039Y-9224460D01*
X17367039Y-9224460D02*
X17357515Y-9205412D01*
X17357515Y-9205412D02*
X17357515Y-9033984D01*
X17538468Y-9224460D02*
X17519420Y-9233984D01*
X17519420Y-9233984D02*
X17481325Y-9233984D01*
X17481325Y-9233984D02*
X17462277Y-9224460D01*
X17462277Y-9224460D02*
X17452753Y-9205412D01*
X17452753Y-9205412D02*
X17452753Y-9129222D01*
X17452753Y-9129222D02*
X17462277Y-9110174D01*
X17462277Y-9110174D02*
X17481325Y-9100650D01*
X17481325Y-9100650D02*
X17519420Y-9100650D01*
X17519420Y-9100650D02*
X17538468Y-9110174D01*
X17538468Y-9110174D02*
X17547992Y-9129222D01*
X17547992Y-9129222D02*
X17547992Y-9148270D01*
X17547992Y-9148270D02*
X17452753Y-9167317D01*
X17624182Y-9224460D02*
X17643230Y-9233984D01*
X17643230Y-9233984D02*
X17681325Y-9233984D01*
X17681325Y-9233984D02*
X17700373Y-9224460D01*
X17700373Y-9224460D02*
X17709896Y-9205412D01*
X17709896Y-9205412D02*
X17709896Y-9195889D01*
X17709896Y-9195889D02*
X17700373Y-9176841D01*
X17700373Y-9176841D02*
X17681325Y-9167317D01*
X17681325Y-9167317D02*
X17652753Y-9167317D01*
X17652753Y-9167317D02*
X17633706Y-9157793D01*
X17633706Y-9157793D02*
X17624182Y-9138746D01*
X17624182Y-9138746D02*
X17624182Y-9129222D01*
X17624182Y-9129222D02*
X17633706Y-9110174D01*
X17633706Y-9110174D02*
X17652753Y-9100650D01*
X17652753Y-9100650D02*
X17681325Y-9100650D01*
X17681325Y-9100650D02*
X17700373Y-9110174D01*
X17776563Y-9310174D02*
X17786087Y-9300650D01*
X17786087Y-9300650D02*
X17805134Y-9272079D01*
X17805134Y-9272079D02*
X17814658Y-9253031D01*
X17814658Y-9253031D02*
X17824182Y-9224460D01*
X17824182Y-9224460D02*
X17833706Y-9176841D01*
X17833706Y-9176841D02*
X17833706Y-9138746D01*
X17833706Y-9138746D02*
X17824182Y-9091127D01*
X17824182Y-9091127D02*
X17814658Y-9062555D01*
X17814658Y-9062555D02*
X17805134Y-9043508D01*
X17805134Y-9043508D02*
X17786087Y-9014936D01*
X17786087Y-9014936D02*
X17776563Y-9005412D01*
X18138468Y-9310174D02*
X18128944Y-9300650D01*
X18128944Y-9300650D02*
X18109896Y-9272079D01*
X18109896Y-9272079D02*
X18100373Y-9253031D01*
X18100373Y-9253031D02*
X18090849Y-9224460D01*
X18090849Y-9224460D02*
X18081325Y-9176841D01*
X18081325Y-9176841D02*
X18081325Y-9138746D01*
X18081325Y-9138746D02*
X18090849Y-9091127D01*
X18090849Y-9091127D02*
X18100373Y-9062555D01*
X18100373Y-9062555D02*
X18109896Y-9043508D01*
X18109896Y-9043508D02*
X18128944Y-9014936D01*
X18128944Y-9014936D02*
X18138468Y-9005412D01*
X18214658Y-9100650D02*
X18214658Y-9233984D01*
X18214658Y-9119698D02*
X18224182Y-9110174D01*
X18224182Y-9110174D02*
X18243230Y-9100650D01*
X18243230Y-9100650D02*
X18271801Y-9100650D01*
X18271801Y-9100650D02*
X18290849Y-9110174D01*
X18290849Y-9110174D02*
X18300373Y-9129222D01*
X18300373Y-9129222D02*
X18300373Y-9233984D01*
X18424182Y-9233984D02*
X18405134Y-9224460D01*
X18405134Y-9224460D02*
X18395611Y-9214936D01*
X18395611Y-9214936D02*
X18386087Y-9195889D01*
X18386087Y-9195889D02*
X18386087Y-9138746D01*
X18386087Y-9138746D02*
X18395611Y-9119698D01*
X18395611Y-9119698D02*
X18405134Y-9110174D01*
X18405134Y-9110174D02*
X18424182Y-9100650D01*
X18424182Y-9100650D02*
X18452754Y-9100650D01*
X18452754Y-9100650D02*
X18471801Y-9110174D01*
X18471801Y-9110174D02*
X18481325Y-9119698D01*
X18481325Y-9119698D02*
X18490849Y-9138746D01*
X18490849Y-9138746D02*
X18490849Y-9195889D01*
X18490849Y-9195889D02*
X18481325Y-9214936D01*
X18481325Y-9214936D02*
X18471801Y-9224460D01*
X18471801Y-9224460D02*
X18452754Y-9233984D01*
X18452754Y-9233984D02*
X18424182Y-9233984D01*
X18547992Y-9100650D02*
X18624182Y-9100650D01*
X18576563Y-9033984D02*
X18576563Y-9205412D01*
X18576563Y-9205412D02*
X18586087Y-9224460D01*
X18586087Y-9224460D02*
X18605134Y-9233984D01*
X18605134Y-9233984D02*
X18624182Y-9233984D01*
X18843230Y-9100650D02*
X18843230Y-9300650D01*
X18843230Y-9110174D02*
X18862277Y-9100650D01*
X18862277Y-9100650D02*
X18900373Y-9100650D01*
X18900373Y-9100650D02*
X18919420Y-9110174D01*
X18919420Y-9110174D02*
X18928944Y-9119698D01*
X18928944Y-9119698D02*
X18938468Y-9138746D01*
X18938468Y-9138746D02*
X18938468Y-9195889D01*
X18938468Y-9195889D02*
X18928944Y-9214936D01*
X18928944Y-9214936D02*
X18919420Y-9224460D01*
X18919420Y-9224460D02*
X18900373Y-9233984D01*
X18900373Y-9233984D02*
X18862277Y-9233984D01*
X18862277Y-9233984D02*
X18843230Y-9224460D01*
X19052754Y-9233984D02*
X19033706Y-9224460D01*
X19033706Y-9224460D02*
X19024182Y-9205412D01*
X19024182Y-9205412D02*
X19024182Y-9033984D01*
X19214658Y-9233984D02*
X19214658Y-9129222D01*
X19214658Y-9129222D02*
X19205135Y-9110174D01*
X19205135Y-9110174D02*
X19186087Y-9100650D01*
X19186087Y-9100650D02*
X19147992Y-9100650D01*
X19147992Y-9100650D02*
X19128944Y-9110174D01*
X19214658Y-9224460D02*
X19195611Y-9233984D01*
X19195611Y-9233984D02*
X19147992Y-9233984D01*
X19147992Y-9233984D02*
X19128944Y-9224460D01*
X19128944Y-9224460D02*
X19119420Y-9205412D01*
X19119420Y-9205412D02*
X19119420Y-9186365D01*
X19119420Y-9186365D02*
X19128944Y-9167317D01*
X19128944Y-9167317D02*
X19147992Y-9157793D01*
X19147992Y-9157793D02*
X19195611Y-9157793D01*
X19195611Y-9157793D02*
X19214658Y-9148270D01*
X19281325Y-9100650D02*
X19357515Y-9100650D01*
X19309896Y-9033984D02*
X19309896Y-9205412D01*
X19309896Y-9205412D02*
X19319420Y-9224460D01*
X19319420Y-9224460D02*
X19338468Y-9233984D01*
X19338468Y-9233984D02*
X19357515Y-9233984D01*
X19500373Y-9224460D02*
X19481325Y-9233984D01*
X19481325Y-9233984D02*
X19443230Y-9233984D01*
X19443230Y-9233984D02*
X19424182Y-9224460D01*
X19424182Y-9224460D02*
X19414658Y-9205412D01*
X19414658Y-9205412D02*
X19414658Y-9129222D01*
X19414658Y-9129222D02*
X19424182Y-9110174D01*
X19424182Y-9110174D02*
X19443230Y-9100650D01*
X19443230Y-9100650D02*
X19481325Y-9100650D01*
X19481325Y-9100650D02*
X19500373Y-9110174D01*
X19500373Y-9110174D02*
X19509896Y-9129222D01*
X19509896Y-9129222D02*
X19509896Y-9148270D01*
X19509896Y-9148270D02*
X19414658Y-9167317D01*
X19681325Y-9233984D02*
X19681325Y-9033984D01*
X19681325Y-9224460D02*
X19662277Y-9233984D01*
X19662277Y-9233984D02*
X19624182Y-9233984D01*
X19624182Y-9233984D02*
X19605135Y-9224460D01*
X19605135Y-9224460D02*
X19595611Y-9214936D01*
X19595611Y-9214936D02*
X19586087Y-9195889D01*
X19586087Y-9195889D02*
X19586087Y-9138746D01*
X19586087Y-9138746D02*
X19595611Y-9119698D01*
X19595611Y-9119698D02*
X19605135Y-9110174D01*
X19605135Y-9110174D02*
X19624182Y-9100650D01*
X19624182Y-9100650D02*
X19662277Y-9100650D01*
X19662277Y-9100650D02*
X19681325Y-9110174D01*
X19757516Y-9310174D02*
X19767039Y-9300650D01*
X19767039Y-9300650D02*
X19786087Y-9272079D01*
X19786087Y-9272079D02*
X19795611Y-9253031D01*
X19795611Y-9253031D02*
X19805135Y-9224460D01*
X19805135Y-9224460D02*
X19814658Y-9176841D01*
X19814658Y-9176841D02*
X19814658Y-9138746D01*
X19814658Y-9138746D02*
X19805135Y-9091127D01*
X19805135Y-9091127D02*
X19795611Y-9062555D01*
X19795611Y-9062555D02*
X19786087Y-9043508D01*
X19786087Y-9043508D02*
X19767039Y-9014936D01*
X19767039Y-9014936D02*
X19757516Y-9005412D01*
M02*
