M48
; DRILL file KiCad 10.0.3 date 2026-06-13T19:55:04
; FORMAT={-:-/ absolute / metric / decimal}
; #@! TF.CreationDate,2026-06-13T19:55:04-04:00
; #@! TF.GenerationSoftware,Kicad,Pcbnew,10.0.3
; #@! TF.FileFunction,Plated,1,4,PTH
FMAT,2
METRIC
; #@! TA.AperFunction,Plated,PTH,ViaDrill
T1C0.300
; #@! TA.AperFunction,Plated,PTH,ComponentDrill
T2C1.000
%
G90
G05
T1
X135.727Y-58.113
X137.44Y-58.0
T2
X133.94Y-47.96
X133.94Y-50.5
X133.94Y-53.04
X133.94Y-55.58
X133.94Y-58.12
X133.94Y-60.66
X133.94Y-63.2
X133.94Y-65.74
X133.94Y-68.28
X133.94Y-70.82
X137.96Y-27.0
X137.96Y-36.0
X140.5Y-27.0
X140.5Y-36.0
X143.04Y-27.0
X143.04Y-36.0
X145.58Y-27.0
X145.58Y-36.0
X148.12Y-27.0
X148.12Y-36.0
X150.66Y-27.0
X150.66Y-36.0
X156.04Y-50.28
X156.04Y-52.82
X156.04Y-55.36
X156.04Y-57.9
X156.04Y-60.44
X156.04Y-62.98
X156.04Y-65.52
X156.04Y-68.06
X156.04Y-70.6
M30
