%TF.GenerationSoftware,KiCad,Pcbnew,10.0.3*%
%TF.CreationDate,2026-06-13T19:54:42-04:00*%
%TF.ProjectId,breakout_board,62726561-6b6f-4757-945f-626f6172642e,rev?*%
%TF.SameCoordinates,Original*%
%TF.FileFunction,Soldermask,Top*%
%TF.FilePolarity,Negative*%
%FSLAX46Y46*%
G04 Gerber Fmt 4.6, Leading zero omitted, Abs format (unit mm)*
G04 Created by KiCad (PCBNEW 10.0.3) date 2026-06-13 19:54:42*
%MOMM*%
%LPD*%
G01*
G04 APERTURE LIST*
G04 APERTURE END LIST*
G36*
X133796790Y-80430393D02*
G01*
X133960952Y-80483733D01*
X134114748Y-80562096D01*
X134254393Y-80663553D01*
X134376447Y-80785607D01*
X134477904Y-80925252D01*
X134556267Y-81079048D01*
X134609607Y-81243210D01*
X134636609Y-81413695D01*
X134636609Y-81586305D01*
X134609607Y-81756790D01*
X134556267Y-81920952D01*
X134477904Y-82074748D01*
X134376447Y-82214393D01*
X134254393Y-82336447D01*
X134114748Y-82437904D01*
X133960952Y-82516267D01*
X133796790Y-82569607D01*
X133626305Y-82596609D01*
X133453695Y-82596609D01*
X133283210Y-82569607D01*
X133119048Y-82516267D01*
X132965252Y-82437904D01*
X132825607Y-82336447D01*
X132703553Y-82214393D01*
X132602096Y-82074748D01*
X132523733Y-81920952D01*
X132470393Y-81756790D01*
X132443391Y-81586305D01*
X132443391Y-81413695D01*
X132470393Y-81243210D01*
X132523733Y-81079048D01*
X132602096Y-80925252D01*
X132703553Y-80785607D01*
X132825607Y-80663553D01*
X132965252Y-80562096D01*
X133119048Y-80483733D01*
X133283210Y-80430393D01*
X133453695Y-80403391D01*
X133626305Y-80403391D01*
X133796790Y-80430393D01*
G37*
G36*
X156796790Y-80430393D02*
G01*
X156960952Y-80483733D01*
X157114748Y-80562096D01*
X157254393Y-80663553D01*
X157376447Y-80785607D01*
X157477904Y-80925252D01*
X157556267Y-81079048D01*
X157609607Y-81243210D01*
X157636609Y-81413695D01*
X157636609Y-81586305D01*
X157609607Y-81756790D01*
X157556267Y-81920952D01*
X157477904Y-82074748D01*
X157376447Y-82214393D01*
X157254393Y-82336447D01*
X157114748Y-82437904D01*
X156960952Y-82516267D01*
X156796790Y-82569607D01*
X156626305Y-82596609D01*
X156453695Y-82596609D01*
X156283210Y-82569607D01*
X156119048Y-82516267D01*
X155965252Y-82437904D01*
X155825607Y-82336447D01*
X155703553Y-82214393D01*
X155602096Y-82074748D01*
X155523733Y-81920952D01*
X155470393Y-81756790D01*
X155443391Y-81586305D01*
X155443391Y-81413695D01*
X155470393Y-81243210D01*
X155523733Y-81079048D01*
X155602096Y-80925252D01*
X155703553Y-80785607D01*
X155825607Y-80663553D01*
X155965252Y-80562096D01*
X156119048Y-80483733D01*
X156283210Y-80430393D01*
X156453695Y-80403391D01*
X156626305Y-80403391D01*
X156796790Y-80430393D01*
G37*
G36*
X134186742Y-70006601D02*
G01*
X134340687Y-70070367D01*
X134479234Y-70162941D01*
X134597059Y-70280766D01*
X134689633Y-70419313D01*
X134753399Y-70573258D01*
X134785907Y-70736685D01*
X134785907Y-70903315D01*
X134753399Y-71066742D01*
X134689633Y-71220687D01*
X134597059Y-71359234D01*
X134479234Y-71477059D01*
X134340687Y-71569633D01*
X134186742Y-71633399D01*
X134023315Y-71665907D01*
X133856685Y-71665907D01*
X133693258Y-71633399D01*
X133539313Y-71569633D01*
X133400766Y-71477059D01*
X133282941Y-71359234D01*
X133190367Y-71220687D01*
X133126601Y-71066742D01*
X133094093Y-70903315D01*
X133094093Y-70736685D01*
X133126601Y-70573258D01*
X133190367Y-70419313D01*
X133282941Y-70280766D01*
X133400766Y-70162941D01*
X133539313Y-70070367D01*
X133693258Y-70006601D01*
X133856685Y-69974093D01*
X134023315Y-69974093D01*
X134186742Y-70006601D01*
G37*
G36*
X156286742Y-69786601D02*
G01*
X156440687Y-69850367D01*
X156579234Y-69942941D01*
X156697059Y-70060766D01*
X156789633Y-70199313D01*
X156853399Y-70353258D01*
X156885907Y-70516685D01*
X156885907Y-70683315D01*
X156853399Y-70846742D01*
X156789633Y-71000687D01*
X156697059Y-71139234D01*
X156579234Y-71257059D01*
X156440687Y-71349633D01*
X156286742Y-71413399D01*
X156123315Y-71445907D01*
X155956685Y-71445907D01*
X155793258Y-71413399D01*
X155639313Y-71349633D01*
X155500766Y-71257059D01*
X155382941Y-71139234D01*
X155290367Y-71000687D01*
X155226601Y-70846742D01*
X155194093Y-70683315D01*
X155194093Y-70516685D01*
X155226601Y-70353258D01*
X155290367Y-70199313D01*
X155382941Y-70060766D01*
X155500766Y-69942941D01*
X155639313Y-69850367D01*
X155793258Y-69786601D01*
X155956685Y-69754093D01*
X156123315Y-69754093D01*
X156286742Y-69786601D01*
G37*
G36*
X134186742Y-67466601D02*
G01*
X134340687Y-67530367D01*
X134479234Y-67622941D01*
X134597059Y-67740766D01*
X134689633Y-67879313D01*
X134753399Y-68033258D01*
X134785907Y-68196685D01*
X134785907Y-68363315D01*
X134753399Y-68526742D01*
X134689633Y-68680687D01*
X134597059Y-68819234D01*
X134479234Y-68937059D01*
X134340687Y-69029633D01*
X134186742Y-69093399D01*
X134023315Y-69125907D01*
X133856685Y-69125907D01*
X133693258Y-69093399D01*
X133539313Y-69029633D01*
X133400766Y-68937059D01*
X133282941Y-68819234D01*
X133190367Y-68680687D01*
X133126601Y-68526742D01*
X133094093Y-68363315D01*
X133094093Y-68196685D01*
X133126601Y-68033258D01*
X133190367Y-67879313D01*
X133282941Y-67740766D01*
X133400766Y-67622941D01*
X133539313Y-67530367D01*
X133693258Y-67466601D01*
X133856685Y-67434093D01*
X134023315Y-67434093D01*
X134186742Y-67466601D01*
G37*
G36*
X156286742Y-67246601D02*
G01*
X156440687Y-67310367D01*
X156579234Y-67402941D01*
X156697059Y-67520766D01*
X156789633Y-67659313D01*
X156853399Y-67813258D01*
X156885907Y-67976685D01*
X156885907Y-68143315D01*
X156853399Y-68306742D01*
X156789633Y-68460687D01*
X156697059Y-68599234D01*
X156579234Y-68717059D01*
X156440687Y-68809633D01*
X156286742Y-68873399D01*
X156123315Y-68905907D01*
X155956685Y-68905907D01*
X155793258Y-68873399D01*
X155639313Y-68809633D01*
X155500766Y-68717059D01*
X155382941Y-68599234D01*
X155290367Y-68460687D01*
X155226601Y-68306742D01*
X155194093Y-68143315D01*
X155194093Y-67976685D01*
X155226601Y-67813258D01*
X155290367Y-67659313D01*
X155382941Y-67520766D01*
X155500766Y-67402941D01*
X155639313Y-67310367D01*
X155793258Y-67246601D01*
X155956685Y-67214093D01*
X156123315Y-67214093D01*
X156286742Y-67246601D01*
G37*
G36*
X134186742Y-64926601D02*
G01*
X134340687Y-64990367D01*
X134479234Y-65082941D01*
X134597059Y-65200766D01*
X134689633Y-65339313D01*
X134753399Y-65493258D01*
X134785907Y-65656685D01*
X134785907Y-65823315D01*
X134753399Y-65986742D01*
X134689633Y-66140687D01*
X134597059Y-66279234D01*
X134479234Y-66397059D01*
X134340687Y-66489633D01*
X134186742Y-66553399D01*
X134023315Y-66585907D01*
X133856685Y-66585907D01*
X133693258Y-66553399D01*
X133539313Y-66489633D01*
X133400766Y-66397059D01*
X133282941Y-66279234D01*
X133190367Y-66140687D01*
X133126601Y-65986742D01*
X133094093Y-65823315D01*
X133094093Y-65656685D01*
X133126601Y-65493258D01*
X133190367Y-65339313D01*
X133282941Y-65200766D01*
X133400766Y-65082941D01*
X133539313Y-64990367D01*
X133693258Y-64926601D01*
X133856685Y-64894093D01*
X134023315Y-64894093D01*
X134186742Y-64926601D01*
G37*
G36*
X156286742Y-64706601D02*
G01*
X156440687Y-64770367D01*
X156579234Y-64862941D01*
X156697059Y-64980766D01*
X156789633Y-65119313D01*
X156853399Y-65273258D01*
X156885907Y-65436685D01*
X156885907Y-65603315D01*
X156853399Y-65766742D01*
X156789633Y-65920687D01*
X156697059Y-66059234D01*
X156579234Y-66177059D01*
X156440687Y-66269633D01*
X156286742Y-66333399D01*
X156123315Y-66365907D01*
X155956685Y-66365907D01*
X155793258Y-66333399D01*
X155639313Y-66269633D01*
X155500766Y-66177059D01*
X155382941Y-66059234D01*
X155290367Y-65920687D01*
X155226601Y-65766742D01*
X155194093Y-65603315D01*
X155194093Y-65436685D01*
X155226601Y-65273258D01*
X155290367Y-65119313D01*
X155382941Y-64980766D01*
X155500766Y-64862941D01*
X155639313Y-64770367D01*
X155793258Y-64706601D01*
X155956685Y-64674093D01*
X156123315Y-64674093D01*
X156286742Y-64706601D01*
G37*
G36*
X134186742Y-62386601D02*
G01*
X134340687Y-62450367D01*
X134479234Y-62542941D01*
X134597059Y-62660766D01*
X134689633Y-62799313D01*
X134753399Y-62953258D01*
X134785907Y-63116685D01*
X134785907Y-63283315D01*
X134753399Y-63446742D01*
X134689633Y-63600687D01*
X134597059Y-63739234D01*
X134479234Y-63857059D01*
X134340687Y-63949633D01*
X134186742Y-64013399D01*
X134023315Y-64045907D01*
X133856685Y-64045907D01*
X133693258Y-64013399D01*
X133539313Y-63949633D01*
X133400766Y-63857059D01*
X133282941Y-63739234D01*
X133190367Y-63600687D01*
X133126601Y-63446742D01*
X133094093Y-63283315D01*
X133094093Y-63116685D01*
X133126601Y-62953258D01*
X133190367Y-62799313D01*
X133282941Y-62660766D01*
X133400766Y-62542941D01*
X133539313Y-62450367D01*
X133693258Y-62386601D01*
X133856685Y-62354093D01*
X134023315Y-62354093D01*
X134186742Y-62386601D01*
G37*
G36*
X156286742Y-62166601D02*
G01*
X156440687Y-62230367D01*
X156579234Y-62322941D01*
X156697059Y-62440766D01*
X156789633Y-62579313D01*
X156853399Y-62733258D01*
X156885907Y-62896685D01*
X156885907Y-63063315D01*
X156853399Y-63226742D01*
X156789633Y-63380687D01*
X156697059Y-63519234D01*
X156579234Y-63637059D01*
X156440687Y-63729633D01*
X156286742Y-63793399D01*
X156123315Y-63825907D01*
X155956685Y-63825907D01*
X155793258Y-63793399D01*
X155639313Y-63729633D01*
X155500766Y-63637059D01*
X155382941Y-63519234D01*
X155290367Y-63380687D01*
X155226601Y-63226742D01*
X155194093Y-63063315D01*
X155194093Y-62896685D01*
X155226601Y-62733258D01*
X155290367Y-62579313D01*
X155382941Y-62440766D01*
X155500766Y-62322941D01*
X155639313Y-62230367D01*
X155793258Y-62166601D01*
X155956685Y-62134093D01*
X156123315Y-62134093D01*
X156286742Y-62166601D01*
G37*
G36*
X134186742Y-59846601D02*
G01*
X134340687Y-59910367D01*
X134479234Y-60002941D01*
X134597059Y-60120766D01*
X134689633Y-60259313D01*
X134753399Y-60413258D01*
X134785907Y-60576685D01*
X134785907Y-60743315D01*
X134753399Y-60906742D01*
X134689633Y-61060687D01*
X134597059Y-61199234D01*
X134479234Y-61317059D01*
X134340687Y-61409633D01*
X134186742Y-61473399D01*
X134023315Y-61505907D01*
X133856685Y-61505907D01*
X133693258Y-61473399D01*
X133539313Y-61409633D01*
X133400766Y-61317059D01*
X133282941Y-61199234D01*
X133190367Y-61060687D01*
X133126601Y-60906742D01*
X133094093Y-60743315D01*
X133094093Y-60576685D01*
X133126601Y-60413258D01*
X133190367Y-60259313D01*
X133282941Y-60120766D01*
X133400766Y-60002941D01*
X133539313Y-59910367D01*
X133693258Y-59846601D01*
X133856685Y-59814093D01*
X134023315Y-59814093D01*
X134186742Y-59846601D01*
G37*
G36*
X156286742Y-59626601D02*
G01*
X156440687Y-59690367D01*
X156579234Y-59782941D01*
X156697059Y-59900766D01*
X156789633Y-60039313D01*
X156853399Y-60193258D01*
X156885907Y-60356685D01*
X156885907Y-60523315D01*
X156853399Y-60686742D01*
X156789633Y-60840687D01*
X156697059Y-60979234D01*
X156579234Y-61097059D01*
X156440687Y-61189633D01*
X156286742Y-61253399D01*
X156123315Y-61285907D01*
X155956685Y-61285907D01*
X155793258Y-61253399D01*
X155639313Y-61189633D01*
X155500766Y-61097059D01*
X155382941Y-60979234D01*
X155290367Y-60840687D01*
X155226601Y-60686742D01*
X155194093Y-60523315D01*
X155194093Y-60356685D01*
X155226601Y-60193258D01*
X155290367Y-60039313D01*
X155382941Y-59900766D01*
X155500766Y-59782941D01*
X155639313Y-59690367D01*
X155793258Y-59626601D01*
X155956685Y-59594093D01*
X156123315Y-59594093D01*
X156286742Y-59626601D01*
G37*
G36*
X134186742Y-57306601D02*
G01*
X134340687Y-57370367D01*
X134479234Y-57462941D01*
X134597059Y-57580766D01*
X134689633Y-57719313D01*
X134753399Y-57873258D01*
X134785907Y-58036685D01*
X134785907Y-58203315D01*
X134753399Y-58366742D01*
X134689633Y-58520687D01*
X134597059Y-58659234D01*
X134479234Y-58777059D01*
X134340687Y-58869633D01*
X134186742Y-58933399D01*
X134023315Y-58965907D01*
X133856685Y-58965907D01*
X133693258Y-58933399D01*
X133539313Y-58869633D01*
X133400766Y-58777059D01*
X133282941Y-58659234D01*
X133190367Y-58520687D01*
X133126601Y-58366742D01*
X133094093Y-58203315D01*
X133094093Y-58036685D01*
X133126601Y-57873258D01*
X133190367Y-57719313D01*
X133282941Y-57580766D01*
X133400766Y-57462941D01*
X133539313Y-57370367D01*
X133693258Y-57306601D01*
X133856685Y-57274093D01*
X134023315Y-57274093D01*
X134186742Y-57306601D01*
G37*
G36*
X156286742Y-57086601D02*
G01*
X156440687Y-57150367D01*
X156579234Y-57242941D01*
X156697059Y-57360766D01*
X156789633Y-57499313D01*
X156853399Y-57653258D01*
X156885907Y-57816685D01*
X156885907Y-57983315D01*
X156853399Y-58146742D01*
X156789633Y-58300687D01*
X156697059Y-58439234D01*
X156579234Y-58557059D01*
X156440687Y-58649633D01*
X156286742Y-58713399D01*
X156123315Y-58745907D01*
X155956685Y-58745907D01*
X155793258Y-58713399D01*
X155639313Y-58649633D01*
X155500766Y-58557059D01*
X155382941Y-58439234D01*
X155290367Y-58300687D01*
X155226601Y-58146742D01*
X155194093Y-57983315D01*
X155194093Y-57816685D01*
X155226601Y-57653258D01*
X155290367Y-57499313D01*
X155382941Y-57360766D01*
X155500766Y-57242941D01*
X155639313Y-57150367D01*
X155793258Y-57086601D01*
X155956685Y-57054093D01*
X156123315Y-57054093D01*
X156286742Y-57086601D01*
G37*
G36*
X134186742Y-54766601D02*
G01*
X134340687Y-54830367D01*
X134479234Y-54922941D01*
X134597059Y-55040766D01*
X134689633Y-55179313D01*
X134753399Y-55333258D01*
X134785907Y-55496685D01*
X134785907Y-55663315D01*
X134753399Y-55826742D01*
X134689633Y-55980687D01*
X134597059Y-56119234D01*
X134479234Y-56237059D01*
X134340687Y-56329633D01*
X134186742Y-56393399D01*
X134023315Y-56425907D01*
X133856685Y-56425907D01*
X133693258Y-56393399D01*
X133539313Y-56329633D01*
X133400766Y-56237059D01*
X133282941Y-56119234D01*
X133190367Y-55980687D01*
X133126601Y-55826742D01*
X133094093Y-55663315D01*
X133094093Y-55496685D01*
X133126601Y-55333258D01*
X133190367Y-55179313D01*
X133282941Y-55040766D01*
X133400766Y-54922941D01*
X133539313Y-54830367D01*
X133693258Y-54766601D01*
X133856685Y-54734093D01*
X134023315Y-54734093D01*
X134186742Y-54766601D01*
G37*
G36*
X156286742Y-54546601D02*
G01*
X156440687Y-54610367D01*
X156579234Y-54702941D01*
X156697059Y-54820766D01*
X156789633Y-54959313D01*
X156853399Y-55113258D01*
X156885907Y-55276685D01*
X156885907Y-55443315D01*
X156853399Y-55606742D01*
X156789633Y-55760687D01*
X156697059Y-55899234D01*
X156579234Y-56017059D01*
X156440687Y-56109633D01*
X156286742Y-56173399D01*
X156123315Y-56205907D01*
X155956685Y-56205907D01*
X155793258Y-56173399D01*
X155639313Y-56109633D01*
X155500766Y-56017059D01*
X155382941Y-55899234D01*
X155290367Y-55760687D01*
X155226601Y-55606742D01*
X155194093Y-55443315D01*
X155194093Y-55276685D01*
X155226601Y-55113258D01*
X155290367Y-54959313D01*
X155382941Y-54820766D01*
X155500766Y-54702941D01*
X155639313Y-54610367D01*
X155793258Y-54546601D01*
X155956685Y-54514093D01*
X156123315Y-54514093D01*
X156286742Y-54546601D01*
G37*
G36*
X134186742Y-52226601D02*
G01*
X134340687Y-52290367D01*
X134479234Y-52382941D01*
X134597059Y-52500766D01*
X134689633Y-52639313D01*
X134753399Y-52793258D01*
X134785907Y-52956685D01*
X134785907Y-53123315D01*
X134753399Y-53286742D01*
X134689633Y-53440687D01*
X134597059Y-53579234D01*
X134479234Y-53697059D01*
X134340687Y-53789633D01*
X134186742Y-53853399D01*
X134023315Y-53885907D01*
X133856685Y-53885907D01*
X133693258Y-53853399D01*
X133539313Y-53789633D01*
X133400766Y-53697059D01*
X133282941Y-53579234D01*
X133190367Y-53440687D01*
X133126601Y-53286742D01*
X133094093Y-53123315D01*
X133094093Y-52956685D01*
X133126601Y-52793258D01*
X133190367Y-52639313D01*
X133282941Y-52500766D01*
X133400766Y-52382941D01*
X133539313Y-52290367D01*
X133693258Y-52226601D01*
X133856685Y-52194093D01*
X134023315Y-52194093D01*
X134186742Y-52226601D01*
G37*
G36*
X156286742Y-52006601D02*
G01*
X156440687Y-52070367D01*
X156579234Y-52162941D01*
X156697059Y-52280766D01*
X156789633Y-52419313D01*
X156853399Y-52573258D01*
X156885907Y-52736685D01*
X156885907Y-52903315D01*
X156853399Y-53066742D01*
X156789633Y-53220687D01*
X156697059Y-53359234D01*
X156579234Y-53477059D01*
X156440687Y-53569633D01*
X156286742Y-53633399D01*
X156123315Y-53665907D01*
X155956685Y-53665907D01*
X155793258Y-53633399D01*
X155639313Y-53569633D01*
X155500766Y-53477059D01*
X155382941Y-53359234D01*
X155290367Y-53220687D01*
X155226601Y-53066742D01*
X155194093Y-52903315D01*
X155194093Y-52736685D01*
X155226601Y-52573258D01*
X155290367Y-52419313D01*
X155382941Y-52280766D01*
X155500766Y-52162941D01*
X155639313Y-52070367D01*
X155793258Y-52006601D01*
X155956685Y-51974093D01*
X156123315Y-51974093D01*
X156286742Y-52006601D01*
G37*
G36*
X134186742Y-49686601D02*
G01*
X134340687Y-49750367D01*
X134479234Y-49842941D01*
X134597059Y-49960766D01*
X134689633Y-50099313D01*
X134753399Y-50253258D01*
X134785907Y-50416685D01*
X134785907Y-50583315D01*
X134753399Y-50746742D01*
X134689633Y-50900687D01*
X134597059Y-51039234D01*
X134479234Y-51157059D01*
X134340687Y-51249633D01*
X134186742Y-51313399D01*
X134023315Y-51345907D01*
X133856685Y-51345907D01*
X133693258Y-51313399D01*
X133539313Y-51249633D01*
X133400766Y-51157059D01*
X133282941Y-51039234D01*
X133190367Y-50900687D01*
X133126601Y-50746742D01*
X133094093Y-50583315D01*
X133094093Y-50416685D01*
X133126601Y-50253258D01*
X133190367Y-50099313D01*
X133282941Y-49960766D01*
X133400766Y-49842941D01*
X133539313Y-49750367D01*
X133693258Y-49686601D01*
X133856685Y-49654093D01*
X134023315Y-49654093D01*
X134186742Y-49686601D01*
G37*
G36*
X156890000Y-51130000D02*
G01*
X155190000Y-51130000D01*
X155190000Y-49430000D01*
X156890000Y-49430000D01*
X156890000Y-51130000D01*
G37*
G36*
X134790000Y-48810000D02*
G01*
X133090000Y-48810000D01*
X133090000Y-47110000D01*
X134790000Y-47110000D01*
X134790000Y-48810000D01*
G37*
G36*
X138810000Y-36850000D02*
G01*
X137110000Y-36850000D01*
X137110000Y-35150000D01*
X138810000Y-35150000D01*
X138810000Y-36850000D01*
G37*
G36*
X140746742Y-35186601D02*
G01*
X140900687Y-35250367D01*
X141039234Y-35342941D01*
X141157059Y-35460766D01*
X141249633Y-35599313D01*
X141313399Y-35753258D01*
X141345907Y-35916685D01*
X141345907Y-36083315D01*
X141313399Y-36246742D01*
X141249633Y-36400687D01*
X141157059Y-36539234D01*
X141039234Y-36657059D01*
X140900687Y-36749633D01*
X140746742Y-36813399D01*
X140583315Y-36845907D01*
X140416685Y-36845907D01*
X140253258Y-36813399D01*
X140099313Y-36749633D01*
X139960766Y-36657059D01*
X139842941Y-36539234D01*
X139750367Y-36400687D01*
X139686601Y-36246742D01*
X139654093Y-36083315D01*
X139654093Y-35916685D01*
X139686601Y-35753258D01*
X139750367Y-35599313D01*
X139842941Y-35460766D01*
X139960766Y-35342941D01*
X140099313Y-35250367D01*
X140253258Y-35186601D01*
X140416685Y-35154093D01*
X140583315Y-35154093D01*
X140746742Y-35186601D01*
G37*
G36*
X143286742Y-35186601D02*
G01*
X143440687Y-35250367D01*
X143579234Y-35342941D01*
X143697059Y-35460766D01*
X143789633Y-35599313D01*
X143853399Y-35753258D01*
X143885907Y-35916685D01*
X143885907Y-36083315D01*
X143853399Y-36246742D01*
X143789633Y-36400687D01*
X143697059Y-36539234D01*
X143579234Y-36657059D01*
X143440687Y-36749633D01*
X143286742Y-36813399D01*
X143123315Y-36845907D01*
X142956685Y-36845907D01*
X142793258Y-36813399D01*
X142639313Y-36749633D01*
X142500766Y-36657059D01*
X142382941Y-36539234D01*
X142290367Y-36400687D01*
X142226601Y-36246742D01*
X142194093Y-36083315D01*
X142194093Y-35916685D01*
X142226601Y-35753258D01*
X142290367Y-35599313D01*
X142382941Y-35460766D01*
X142500766Y-35342941D01*
X142639313Y-35250367D01*
X142793258Y-35186601D01*
X142956685Y-35154093D01*
X143123315Y-35154093D01*
X143286742Y-35186601D01*
G37*
G36*
X145826742Y-35186601D02*
G01*
X145980687Y-35250367D01*
X146119234Y-35342941D01*
X146237059Y-35460766D01*
X146329633Y-35599313D01*
X146393399Y-35753258D01*
X146425907Y-35916685D01*
X146425907Y-36083315D01*
X146393399Y-36246742D01*
X146329633Y-36400687D01*
X146237059Y-36539234D01*
X146119234Y-36657059D01*
X145980687Y-36749633D01*
X145826742Y-36813399D01*
X145663315Y-36845907D01*
X145496685Y-36845907D01*
X145333258Y-36813399D01*
X145179313Y-36749633D01*
X145040766Y-36657059D01*
X144922941Y-36539234D01*
X144830367Y-36400687D01*
X144766601Y-36246742D01*
X144734093Y-36083315D01*
X144734093Y-35916685D01*
X144766601Y-35753258D01*
X144830367Y-35599313D01*
X144922941Y-35460766D01*
X145040766Y-35342941D01*
X145179313Y-35250367D01*
X145333258Y-35186601D01*
X145496685Y-35154093D01*
X145663315Y-35154093D01*
X145826742Y-35186601D01*
G37*
G36*
X148366742Y-35186601D02*
G01*
X148520687Y-35250367D01*
X148659234Y-35342941D01*
X148777059Y-35460766D01*
X148869633Y-35599313D01*
X148933399Y-35753258D01*
X148965907Y-35916685D01*
X148965907Y-36083315D01*
X148933399Y-36246742D01*
X148869633Y-36400687D01*
X148777059Y-36539234D01*
X148659234Y-36657059D01*
X148520687Y-36749633D01*
X148366742Y-36813399D01*
X148203315Y-36845907D01*
X148036685Y-36845907D01*
X147873258Y-36813399D01*
X147719313Y-36749633D01*
X147580766Y-36657059D01*
X147462941Y-36539234D01*
X147370367Y-36400687D01*
X147306601Y-36246742D01*
X147274093Y-36083315D01*
X147274093Y-35916685D01*
X147306601Y-35753258D01*
X147370367Y-35599313D01*
X147462941Y-35460766D01*
X147580766Y-35342941D01*
X147719313Y-35250367D01*
X147873258Y-35186601D01*
X148036685Y-35154093D01*
X148203315Y-35154093D01*
X148366742Y-35186601D01*
G37*
G36*
X150906742Y-35186601D02*
G01*
X151060687Y-35250367D01*
X151199234Y-35342941D01*
X151317059Y-35460766D01*
X151409633Y-35599313D01*
X151473399Y-35753258D01*
X151505907Y-35916685D01*
X151505907Y-36083315D01*
X151473399Y-36246742D01*
X151409633Y-36400687D01*
X151317059Y-36539234D01*
X151199234Y-36657059D01*
X151060687Y-36749633D01*
X150906742Y-36813399D01*
X150743315Y-36845907D01*
X150576685Y-36845907D01*
X150413258Y-36813399D01*
X150259313Y-36749633D01*
X150120766Y-36657059D01*
X150002941Y-36539234D01*
X149910367Y-36400687D01*
X149846601Y-36246742D01*
X149814093Y-36083315D01*
X149814093Y-35916685D01*
X149846601Y-35753258D01*
X149910367Y-35599313D01*
X150002941Y-35460766D01*
X150120766Y-35342941D01*
X150259313Y-35250367D01*
X150413258Y-35186601D01*
X150576685Y-35154093D01*
X150743315Y-35154093D01*
X150906742Y-35186601D01*
G37*
G36*
X138810000Y-27850000D02*
G01*
X137110000Y-27850000D01*
X137110000Y-26150000D01*
X138810000Y-26150000D01*
X138810000Y-27850000D01*
G37*
G36*
X140746742Y-26186601D02*
G01*
X140900687Y-26250367D01*
X141039234Y-26342941D01*
X141157059Y-26460766D01*
X141249633Y-26599313D01*
X141313399Y-26753258D01*
X141345907Y-26916685D01*
X141345907Y-27083315D01*
X141313399Y-27246742D01*
X141249633Y-27400687D01*
X141157059Y-27539234D01*
X141039234Y-27657059D01*
X140900687Y-27749633D01*
X140746742Y-27813399D01*
X140583315Y-27845907D01*
X140416685Y-27845907D01*
X140253258Y-27813399D01*
X140099313Y-27749633D01*
X139960766Y-27657059D01*
X139842941Y-27539234D01*
X139750367Y-27400687D01*
X139686601Y-27246742D01*
X139654093Y-27083315D01*
X139654093Y-26916685D01*
X139686601Y-26753258D01*
X139750367Y-26599313D01*
X139842941Y-26460766D01*
X139960766Y-26342941D01*
X140099313Y-26250367D01*
X140253258Y-26186601D01*
X140416685Y-26154093D01*
X140583315Y-26154093D01*
X140746742Y-26186601D01*
G37*
G36*
X143286742Y-26186601D02*
G01*
X143440687Y-26250367D01*
X143579234Y-26342941D01*
X143697059Y-26460766D01*
X143789633Y-26599313D01*
X143853399Y-26753258D01*
X143885907Y-26916685D01*
X143885907Y-27083315D01*
X143853399Y-27246742D01*
X143789633Y-27400687D01*
X143697059Y-27539234D01*
X143579234Y-27657059D01*
X143440687Y-27749633D01*
X143286742Y-27813399D01*
X143123315Y-27845907D01*
X142956685Y-27845907D01*
X142793258Y-27813399D01*
X142639313Y-27749633D01*
X142500766Y-27657059D01*
X142382941Y-27539234D01*
X142290367Y-27400687D01*
X142226601Y-27246742D01*
X142194093Y-27083315D01*
X142194093Y-26916685D01*
X142226601Y-26753258D01*
X142290367Y-26599313D01*
X142382941Y-26460766D01*
X142500766Y-26342941D01*
X142639313Y-26250367D01*
X142793258Y-26186601D01*
X142956685Y-26154093D01*
X143123315Y-26154093D01*
X143286742Y-26186601D01*
G37*
G36*
X145826742Y-26186601D02*
G01*
X145980687Y-26250367D01*
X146119234Y-26342941D01*
X146237059Y-26460766D01*
X146329633Y-26599313D01*
X146393399Y-26753258D01*
X146425907Y-26916685D01*
X146425907Y-27083315D01*
X146393399Y-27246742D01*
X146329633Y-27400687D01*
X146237059Y-27539234D01*
X146119234Y-27657059D01*
X145980687Y-27749633D01*
X145826742Y-27813399D01*
X145663315Y-27845907D01*
X145496685Y-27845907D01*
X145333258Y-27813399D01*
X145179313Y-27749633D01*
X145040766Y-27657059D01*
X144922941Y-27539234D01*
X144830367Y-27400687D01*
X144766601Y-27246742D01*
X144734093Y-27083315D01*
X144734093Y-26916685D01*
X144766601Y-26753258D01*
X144830367Y-26599313D01*
X144922941Y-26460766D01*
X145040766Y-26342941D01*
X145179313Y-26250367D01*
X145333258Y-26186601D01*
X145496685Y-26154093D01*
X145663315Y-26154093D01*
X145826742Y-26186601D01*
G37*
G36*
X148366742Y-26186601D02*
G01*
X148520687Y-26250367D01*
X148659234Y-26342941D01*
X148777059Y-26460766D01*
X148869633Y-26599313D01*
X148933399Y-26753258D01*
X148965907Y-26916685D01*
X148965907Y-27083315D01*
X148933399Y-27246742D01*
X148869633Y-27400687D01*
X148777059Y-27539234D01*
X148659234Y-27657059D01*
X148520687Y-27749633D01*
X148366742Y-27813399D01*
X148203315Y-27845907D01*
X148036685Y-27845907D01*
X147873258Y-27813399D01*
X147719313Y-27749633D01*
X147580766Y-27657059D01*
X147462941Y-27539234D01*
X147370367Y-27400687D01*
X147306601Y-27246742D01*
X147274093Y-27083315D01*
X147274093Y-26916685D01*
X147306601Y-26753258D01*
X147370367Y-26599313D01*
X147462941Y-26460766D01*
X147580766Y-26342941D01*
X147719313Y-26250367D01*
X147873258Y-26186601D01*
X148036685Y-26154093D01*
X148203315Y-26154093D01*
X148366742Y-26186601D01*
G37*
G36*
X150906742Y-26186601D02*
G01*
X151060687Y-26250367D01*
X151199234Y-26342941D01*
X151317059Y-26460766D01*
X151409633Y-26599313D01*
X151473399Y-26753258D01*
X151505907Y-26916685D01*
X151505907Y-27083315D01*
X151473399Y-27246742D01*
X151409633Y-27400687D01*
X151317059Y-27539234D01*
X151199234Y-27657059D01*
X151060687Y-27749633D01*
X150906742Y-27813399D01*
X150743315Y-27845907D01*
X150576685Y-27845907D01*
X150413258Y-27813399D01*
X150259313Y-27749633D01*
X150120766Y-27657059D01*
X150002941Y-27539234D01*
X149910367Y-27400687D01*
X149846601Y-27246742D01*
X149814093Y-27083315D01*
X149814093Y-26916685D01*
X149846601Y-26753258D01*
X149910367Y-26599313D01*
X150002941Y-26460766D01*
X150120766Y-26342941D01*
X150259313Y-26250367D01*
X150413258Y-26186601D01*
X150576685Y-26154093D01*
X150743315Y-26154093D01*
X150906742Y-26186601D01*
G37*
G36*
X133796790Y-22430393D02*
G01*
X133960952Y-22483733D01*
X134114748Y-22562096D01*
X134254393Y-22663553D01*
X134376447Y-22785607D01*
X134477904Y-22925252D01*
X134556267Y-23079048D01*
X134609607Y-23243210D01*
X134636609Y-23413695D01*
X134636609Y-23586305D01*
X134609607Y-23756790D01*
X134556267Y-23920952D01*
X134477904Y-24074748D01*
X134376447Y-24214393D01*
X134254393Y-24336447D01*
X134114748Y-24437904D01*
X133960952Y-24516267D01*
X133796790Y-24569607D01*
X133626305Y-24596609D01*
X133453695Y-24596609D01*
X133283210Y-24569607D01*
X133119048Y-24516267D01*
X132965252Y-24437904D01*
X132825607Y-24336447D01*
X132703553Y-24214393D01*
X132602096Y-24074748D01*
X132523733Y-23920952D01*
X132470393Y-23756790D01*
X132443391Y-23586305D01*
X132443391Y-23413695D01*
X132470393Y-23243210D01*
X132523733Y-23079048D01*
X132602096Y-22925252D01*
X132703553Y-22785607D01*
X132825607Y-22663553D01*
X132965252Y-22562096D01*
X133119048Y-22483733D01*
X133283210Y-22430393D01*
X133453695Y-22403391D01*
X133626305Y-22403391D01*
X133796790Y-22430393D01*
G37*
G36*
X156796790Y-22430393D02*
G01*
X156960952Y-22483733D01*
X157114748Y-22562096D01*
X157254393Y-22663553D01*
X157376447Y-22785607D01*
X157477904Y-22925252D01*
X157556267Y-23079048D01*
X157609607Y-23243210D01*
X157636609Y-23413695D01*
X157636609Y-23586305D01*
X157609607Y-23756790D01*
X157556267Y-23920952D01*
X157477904Y-24074748D01*
X157376447Y-24214393D01*
X157254393Y-24336447D01*
X157114748Y-24437904D01*
X156960952Y-24516267D01*
X156796790Y-24569607D01*
X156626305Y-24596609D01*
X156453695Y-24596609D01*
X156283210Y-24569607D01*
X156119048Y-24516267D01*
X155965252Y-24437904D01*
X155825607Y-24336447D01*
X155703553Y-24214393D01*
X155602096Y-24074748D01*
X155523733Y-23920952D01*
X155470393Y-23756790D01*
X155443391Y-23586305D01*
X155443391Y-23413695D01*
X155470393Y-23243210D01*
X155523733Y-23079048D01*
X155602096Y-22925252D01*
X155703553Y-22785607D01*
X155825607Y-22663553D01*
X155965252Y-22562096D01*
X156119048Y-22483733D01*
X156283210Y-22430393D01*
X156453695Y-22403391D01*
X156626305Y-22403391D01*
X156796790Y-22430393D01*
G37*
M02*
